
<svg width="32" height="32" viewBox="0 0 32 32" xmlns="http://www.w3.org/2000/svg">
  <defs>
    <linearGradient id="grad1" x1="0%" y1="0%" x2="100%" y2="100%">
      <stop offset="0%" style="stop-color:#6A00F4; stop-opacity:1" />
      <stop offset="100%" style="stop-color:#00D4FF; stop-opacity:1" />
    </linearGradient>
  </defs>
  <rect width="32" height="32" rx="8" ry="8" fill="black"/>
  <path d="M16 6 C20 6, 26 10, 26 16 C26 22, 20 26, 16 26 C12 26, 6 22, 6 16 C6 10, 12 6, 16 6 Z M12 16 C12 18, 14 20, 16 20 C18 20, 20 18, 20 16 C20 14, 18 12, 16 12 C14 12, 12 14, 12 16 Z" fill="url(#grad1)" stroke="white" stroke-width="2"/>
</svg>
