<?xml version="1.0" standalone="no"?>
<!DOCTYPE svg PUBLIC "-//W3C//DTD SVG 20010904//EN"
 "http://www.w3.org/TR/2001/REC-SVG-20010904/DTD/svg10.dtd">
<svg version="1.0" xmlns="http://www.w3.org/2000/svg"
 width="32.000000pt" height="32.000000pt" viewBox="0 0 32.000000 32.000000"
 preserveAspectRatio="xMidYMid meet">

<g transform="translate(0.000000,32.000000) scale(0.100000,-0.100000)"
fill="#000000" stroke="none">
<path d="M0 160 l0 -160 70 0 c54 0 70 3 70 14 0 8 5 18 10 21 13 8 42 -14 34
-26 -3 -5 27 -9 65 -9 l71 0 0 160 0 160 -160 0 -160 0 0 -160z m217 112 c56
-30 85 -132 46 -163 -15 -13 -15 -12 -5 8 16 28 15 43 -1 43 -7 0 -18 13 -24
29 -6 16 -19 34 -30 40 -18 9 -20 7 -21 -20 0 -17 -4 -44 -7 -61 -10 -43 16
-33 32 13 11 32 12 32 12 7 1 -17 -8 -34 -24 -46 -15 -12 -25 -30 -25 -46 0
-14 -4 -26 -10 -26 -6 0 -10 33 -10 80 0 77 -4 89 -26 73 -5 -5 -1 0 9 9 10
10 13 19 7 23 -5 3 -21 -5 -35 -19 -14 -14 -25 -21 -25 -16 0 4 14 20 31 35
17 14 29 29 25 32 -11 11 -60 -32 -78 -68 -11 -21 -18 -27 -18 -16 0 26 30 67
63 87 32 20 80 20 114 2z m-137 -102 c0 -5 -5 -10 -11 -10 -5 0 -7 5 -4 10 3
6 8 10 11 10 2 0 4 -4 4 -10z m44 -35 l17 -30 -20 24 c-12 13 -21 28 -21 34 0
12 0 11 24 -28z m92 -30 c-11 -8 -25 -15 -30 -15 -6 1 0 7 14 15 32 19 40 18
16 0z m-125 -22 c13 -16 12 -17 -3 -4 -10 7 -18 15 -18 17 0 8 8 3 21 -13z"/>
<path d="M180 261 c0 -5 9 -13 21 -16 11 -4 27 -22 36 -41 9 -19 20 -34 25
-34 26 0 -15 74 -49 89 -29 13 -33 14 -33 2z"/>
</g>
</svg>
